<?xml version="1.0" standalone="no"?>
<!DOCTYPE svg PUBLIC "-//W3C//DTD SVG 20010904//EN"
 "http://www.w3.org/TR/2001/REC-SVG-20010904/DTD/svg10.dtd">
<svg version="1.0" xmlns="http://www.w3.org/2000/svg"
 width="510.000000pt" height="510.000000pt" viewBox="0 0 510.000000 510.000000"
 preserveAspectRatio="xMidYMid meet">
<metadata>
Created by potrace 1.14, written by Peter Selinger 2001-2017
</metadata>
<g transform="translate(0.000000,510.000000) scale(0.100000,-0.100000)"
fill="#000000" stroke="none">
<path d="M105 5085 c-45 -21 -61 -37 -84 -81 l-21 -40 2 -2425 c3 -2336 4
-2425 21 -2454 11 -17 35 -42 55 -55 l36 -25 2436 0 2436 0 37 25 c20 13 45
41 56 61 l21 37 -3 2428 c-2 2341 -3 2430 -20 2459 -11 17 -35 42 -55 55 l-36
25 -2425 2 c-2072 2 -2430 0 -2456 -12z"/>
</g>
</svg>
